<svg width="96" height="73" viewBox="0 0 96 73" fill="none" xmlns="http://www.w3.org/2000/svg">
<g clip-path="url(#clip0_837_952)">
<path d="M47.789 0L48.6812 1.80996L50.6864 2.10396L49.2377 3.51425L49.578 5.50337L47.789 4.56164L45.9954 5.50337L46.3403 3.51425L44.8916 2.10396L46.8922 1.80996L47.789 0Z" fill="#F49618"/>
<path d="M42.9925 1.90186L43.5811 3.08705L44.8918 3.2754L43.9445 4.19875L44.1652 5.50339L42.9925 4.88782L41.8243 5.50339L42.0451 4.19875L41.0977 3.2754L42.4084 3.08705L42.9925 1.90186Z" fill="#F49618"/>
<path d="M53.0088 1.90186L53.5928 3.08705L54.9036 3.2754L53.9562 4.19875L54.1769 5.50339L53.0088 4.88782L51.836 5.50339L52.0568 4.19875L51.1094 3.2754L52.4201 3.08705L53.0088 1.90186Z" fill="#F49618"/>
<path d="M48.0141 65.4983V64.9378C48.3498 64.9378 48.6855 64.9378 49.0167 64.9378V65.4937C48.6947 65.4891 48.3544 65.4937 48.0141 65.4983ZM46.9931 65.4983C46.6528 65.4983 46.3124 65.4707 45.9767 65.4431L46.0181 64.8873C46.3492 64.9118 46.6804 64.9302 47.0115 64.9424L46.9931 65.4983ZM50.0515 65.4431L50.0055 64.8827C50.3366 64.8827 50.6723 64.8276 50.9988 64.7908L51.0632 65.3467C50.7275 65.3604 50.3872 65.3926 50.0515 65.4202V65.4431ZM44.9603 65.3467C44.62 65.3099 44.2843 65.264 43.9485 65.2135L44.0359 64.6622C44.3625 64.7081 44.6936 64.7541 45.0247 64.7908L44.9603 65.3467ZM52.075 65.2089L51.9876 64.6576C52.3188 64.6071 52.6453 64.5519 52.9718 64.4876L53.0776 65.0343C52.7465 65.0756 52.4107 65.1262 52.075 65.1859V65.2089ZM42.946 65.0389C42.6102 64.9746 42.2791 64.9057 41.948 64.8276L42.0767 64.2855C42.3987 64.359 42.7252 64.4279 43.0517 64.4922L42.946 65.0389ZM54.0756 64.823L53.9468 64.2809C54.2734 64.2028 54.5953 64.1201 54.9172 64.0328L55.0644 64.5749C54.7516 64.6392 54.4067 64.7219 54.0756 64.8V64.823ZM40.9546 64.5565L39.975 64.2671L40.1452 63.7342C40.4625 63.8353 40.7798 63.9272 41.1018 64.0145L40.9546 64.5565ZM56.0348 64.2625L55.8692 63.7297C56.1865 63.6286 56.4993 63.5229 56.812 63.4081L57.0006 63.9364C56.6878 64.0512 56.3659 64.1569 56.0394 64.2625H56.0348ZM39.0184 63.941C38.6965 63.8261 38.3791 63.7067 38.0618 63.5781L38.2734 63.059C38.5815 63.183 38.8942 63.3024 39.1932 63.4173L39.0184 63.941ZM57.9664 63.5735L57.7548 63.0544C58.0629 62.9303 58.3665 62.7971 58.6746 62.6639L58.9046 63.1738C58.5872 63.3116 58.2745 63.4448 57.971 63.5735H57.9664ZM37.1236 63.1784C36.8109 63.0406 36.5027 62.8936 36.2038 62.719L36.4521 62.2183C36.7511 62.3653 37.05 62.5077 37.3719 62.6455L37.1236 63.1784ZM59.8198 62.719L59.5714 62.2183L60.4544 61.7589L60.7212 62.2458C60.4176 62.4342 60.1187 62.5904 59.8106 62.742L59.8198 62.719ZM35.2932 62.2596C34.9943 62.0943 34.6953 61.9289 34.4056 61.7543L34.6907 61.272C34.9759 61.4404 35.2656 61.6058 35.5599 61.7681L35.2932 62.2596ZM61.6042 61.7543L61.3191 61.272C61.6042 61.102 61.8893 60.9274 62.1653 60.7483L62.4688 61.2076C62.1791 61.4144 61.8939 61.5935 61.5996 61.7681L61.6042 61.7543ZM33.5502 61.2168C33.265 61.0331 32.9845 60.8402 32.7085 60.6426L33.0305 60.1832C33.3018 60.3762 33.5778 60.5599 33.8583 60.7437L33.5502 61.2168ZM63.3288 60.6472L63.0023 60.1878C63.2782 59.9949 63.545 59.7974 63.8071 59.5952L64.1475 60.0546C63.8623 60.2659 63.5864 60.4635 63.3104 60.661L63.3288 60.6472ZM31.8669 60.073C31.5971 59.8647 31.3304 59.6534 31.0667 59.439L31.4254 59.0072C31.6784 59.2231 31.9405 59.4299 32.2072 59.632L31.8669 60.073ZM64.9293 59.4436L64.5706 59.0118C64.8281 58.8005 65.0811 58.5846 65.3294 58.3641L65.7019 58.7821C65.4536 58.9965 65.196 59.2109 64.9293 59.4253V59.4436ZM30.2941 58.7775C30.0411 58.5524 29.7882 58.3182 29.5444 58.0839L29.9353 57.6842C30.1745 57.9139 30.4182 58.139 30.6666 58.3595L30.2941 58.7775ZM66.4516 58.0931L66.0606 57.6888C66.2998 57.4591 66.5206 57.2294 66.7689 56.986L67.169 57.3718C66.9345 57.5969 66.7091 57.8358 66.4516 58.0747V58.0931ZM28.827 57.3672C28.5878 57.1192 28.3671 56.8711 28.1325 56.6185L28.551 56.2464C28.7718 56.4944 28.9971 56.7379 29.2271 56.9768L28.827 57.3672ZM67.8635 56.623L67.445 56.2509C67.6657 56.0029 67.9049 55.7502 68.098 55.4976L68.5303 55.8513C68.3096 56.0948 68.0888 56.352 67.8635 56.6047V56.623ZM27.4703 55.8467C27.2618 55.5741 27.0502 55.2985 26.8356 55.0198L27.2955 54.6845C27.4932 54.9463 27.7002 55.2081 27.9118 55.4654L27.4703 55.8467ZM69.1604 55.0198L68.7005 54.6845C68.9028 54.418 69.1006 54.1516 69.2892 53.876L69.7491 54.2021C69.5697 54.4915 69.3673 54.7672 69.1604 55.0198ZM26.2377 54.2113C26.04 53.9357 25.8514 53.6554 25.6674 53.3706L26.1273 53.0629C26.3067 53.3431 26.4953 53.6187 26.6838 53.8897L26.2377 54.2113ZM70.3423 53.3706L69.8824 53.0675C70.0618 52.7872 70.2412 52.507 70.4113 52.2176L70.8712 52.507C70.7011 52.7964 70.5217 53.0858 70.3377 53.3706H70.3423ZM25.1293 52.507C24.9546 52.213 24.7844 51.919 24.6235 51.6204L25.1155 51.354C25.2765 51.648 25.4375 51.9374 25.6076 52.2176L25.1293 52.507ZM71.3863 51.6204L70.8942 51.3448C71.0506 51.0508 71.207 50.7568 71.3541 50.4582L71.8554 50.7062C71.7037 51.0186 71.5473 51.3448 71.3817 51.6204H71.3863ZM24.1544 50.7016C24.0026 50.3984 23.86 50.0953 23.7174 49.7829L24.2279 49.5532C24.3659 49.8564 24.5085 50.1596 24.6556 50.472L24.1544 50.7016ZM72.2969 49.7829L71.7864 49.5532C71.9198 49.25 72.0532 48.9422 72.1773 48.6344L72.697 48.8458C72.5637 49.1673 72.4303 49.5073 72.2923 49.7921L72.2969 49.7829ZM23.3219 48.8641C23.1932 48.5517 23.0736 48.2348 22.9586 47.9132L23.4829 47.7249C23.5979 48.0372 23.7128 48.3496 23.837 48.6436L23.3219 48.8641ZM73.0558 47.8994L72.5315 47.7111C72.6419 47.3987 72.7476 47.0818 72.8488 46.7648L73.3823 46.9302C73.2811 47.2563 73.1707 47.5779 73.0558 47.8994ZM22.6229 46.9531C22.5217 46.6315 22.4251 46.3054 22.3377 45.9746L22.8758 45.8276C22.9632 46.1492 23.0598 46.4708 23.1564 46.7831L22.6229 46.9531ZM73.672 45.9563L73.1477 45.8322C73.2351 45.5107 73.3133 45.1891 73.3915 44.8629L73.9342 44.9916C73.8468 45.2993 73.7594 45.6301 73.672 45.9563ZM22.0986 44.9916C22.0204 44.6608 21.9514 44.3301 21.887 43.9947L22.4343 43.8891C22.4987 44.2152 22.5677 44.5414 22.6413 44.8629L22.0986 44.9916ZM74.1319 43.9947L73.5846 43.8891C73.649 43.5629 73.7042 43.2367 73.7548 42.906L74.3067 42.9887C74.2561 43.3056 74.1963 43.641 74.1319 43.9947ZM21.7031 43.0162C21.6479 42.6809 21.6065 42.3455 21.5651 42.0056L22.1216 41.9413C22.1584 42.2721 22.2044 42.6028 22.255 42.9289L21.7031 43.0162ZM74.4493 41.9826L73.8928 41.9183C73.9296 41.5876 73.9618 41.2568 73.9848 40.9261L74.5412 40.9674C74.5275 41.2844 74.4815 41.6197 74.4447 41.9597L74.4493 41.9826ZM21.4685 40.9904C21.4409 40.655 21.4225 40.3151 21.4087 39.9751L21.9698 39.9522C21.9698 40.2875 22.002 40.6183 22.025 40.949L21.4685 40.9904ZM74.601 39.9522H74.04C74.04 39.6214 74.04 39.2907 74.04 38.9553L74.5964 38.9094V38.9553C74.6148 39.2539 74.6102 39.5939 74.5964 39.9292L74.601 39.9522ZM21.3857 38.9415V38.9186C21.3857 38.5878 21.3857 38.257 21.3857 37.9263H21.9422C21.9422 38.2525 21.9422 38.574 21.9422 38.9002L21.3857 38.9415ZM74.0354 37.8804C74.0354 37.545 74.0032 37.2143 73.9756 36.8835L74.5366 36.8376C74.5366 37.1775 74.5826 37.5175 74.5964 37.8574L74.0354 37.8804ZM22.0204 36.9616L21.4593 36.9203C21.4869 36.5803 21.5191 36.2404 21.5559 35.905L22.1124 35.9694C22.0986 36.2771 22.0434 36.6079 22.0204 36.9432V36.9616ZM73.8836 35.9004C73.8422 35.5697 73.7962 35.2389 73.7456 34.9128L74.3021 34.8255C74.3527 35.1608 74.3987 35.4962 74.4355 35.8361L73.8836 35.9004ZM22.2412 34.9817L21.6893 34.899C21.7399 34.5637 21.7997 34.2283 21.864 33.8976L22.4113 34.0032C22.3515 34.3018 22.2917 34.6326 22.2412 34.9587V34.9817ZM73.5754 33.9343C73.5111 33.6081 73.4421 33.282 73.3685 32.9604L73.9112 32.8318C73.9894 33.1625 74.0583 33.4933 74.1273 33.8286L73.5754 33.9343ZM22.6183 33.0155L22.0986 32.8777C22.1722 32.547 22.255 32.2162 22.3469 31.8901L22.885 32.037C22.7746 32.3586 22.6965 32.6802 22.6183 33.0018V33.0155ZM73.1201 31.9865C73.0328 31.665 72.9362 31.348 72.835 31.031L73.3685 30.861C73.4697 31.1826 73.5709 31.5088 73.6582 31.8395L73.1201 31.9865ZM23.1426 31.0816L22.6091 30.9116C22.7149 30.5854 22.8206 30.2638 22.9356 29.9469L23.4645 30.1352C23.3495 30.4476 23.2437 30.7646 23.1426 31.0816ZM72.5131 30.0709C72.4027 29.7585 72.2831 29.4462 72.159 29.1522L72.6786 28.9408C72.8028 29.2532 72.927 29.5702 73.042 29.8918L72.5131 30.0709ZM23.8186 29.1981L23.2989 28.9914C23.4277 28.6744 23.5611 28.362 23.6991 28.0497L24.2095 28.2793C24.0762 28.5825 23.9382 28.8903 23.8186 29.1981ZM71.768 28.2288C71.6301 27.9256 71.4875 27.627 71.3403 27.31L71.8416 27.062C71.9934 27.3652 72.136 27.6684 72.3015 27.9807L71.768 28.2288ZM24.6373 27.3789L24.136 27.1263C24.2877 26.8231 24.4441 26.5199 24.5959 26.2075L25.088 26.474C24.9408 26.7818 24.7844 27.0758 24.6373 27.3789ZM70.8804 26.4602C70.7195 26.1708 70.5539 25.8814 70.3837 25.5966L70.8436 25.3072C71.0184 25.6012 71.184 25.8952 71.3495 26.1938L70.8804 26.4602ZM25.5938 25.6195L25.1339 25.3347C25.3087 25.0453 25.4881 24.7559 25.672 24.4711L26.1319 24.7743C25.9388 25.0545 25.7778 25.3347 25.5938 25.6195ZM69.8594 24.7375C69.6755 24.4573 69.4915 24.1863 69.2984 23.9152L69.7583 23.5891C69.956 23.8693 70.1446 24.1495 70.3331 24.4343L69.8594 24.7375ZM26.6976 23.9474L26.2377 23.6258C26.4355 23.3502 26.6378 23.0746 26.8448 22.8035L27.3047 23.1435C27.0655 23.4053 26.8724 23.6763 26.6976 23.9474ZM68.7235 23.1113C68.5257 22.8495 68.3188 22.5876 68.1072 22.3304L68.5349 21.9767C68.7511 22.2385 68.9626 22.5003 69.1696 22.7714L68.7235 23.1113ZM27.9072 22.3625L27.4749 22.0042C27.691 21.7424 27.9348 21.4851 28.1417 21.2325L28.5602 21.6046C28.3165 21.8526 28.1003 22.1053 27.8888 22.3625H27.9072ZM67.4588 21.577C67.238 21.3289 66.9988 21.0854 66.7781 20.8466L67.1828 20.4561C67.4174 20.7042 67.6427 20.9522 67.8773 21.2049L67.4588 21.577ZM29.2409 20.8741L28.8362 20.4837C29.0753 20.2402 29.2961 20.0013 29.5582 19.767L29.9445 20.1667C29.6824 20.3964 29.457 20.6353 29.2179 20.8741H29.2409ZM66.0744 20.1437C65.8353 19.9094 65.6145 19.6844 65.3432 19.4638L65.7111 19.0458C65.9687 19.2709 66.217 19.5052 66.4608 19.7395L66.0744 20.1437ZM30.662 19.4914L30.2894 19.0734C30.5424 18.8483 30.7999 18.614 31.0667 18.4073L31.4208 18.8391C31.1541 19.0504 30.9011 19.2663 30.6528 19.4914H30.662ZM64.5706 18.8161C64.313 18.6048 64.0509 18.3981 63.7841 18.196L64.1245 17.7366C64.3943 17.9418 64.661 18.1531 64.9247 18.3705L64.5706 18.8161ZM32.2164 18.2189L31.8761 17.7596C32.1429 17.5528 32.4188 17.3507 32.6947 17.1578L33.0167 17.6171C32.7223 17.8101 32.4556 18.0214 32.2164 18.2189ZM62.9931 17.608C62.7218 17.415 62.4458 17.2313 62.1653 17.0475L62.4688 16.5881C62.7585 16.7719 63.0391 16.9648 63.315 17.1578L62.9931 17.608ZM33.8445 17.0705L33.541 16.6111C33.8215 16.4274 34.1112 16.2482 34.401 16.0736L34.6907 16.556C34.3826 16.7168 34.0974 16.8913 33.8215 17.0705H33.8445ZM61.3191 16.5238L60.4498 16.0277L60.7166 15.5361C61.0155 15.7015 61.3099 15.8669 61.6042 16.0415L61.3191 16.5238ZM35.5645 16.0644L35.2978 15.5775C35.5921 15.4121 35.8957 15.2559 36.2176 15.1181L36.4659 15.6188C36.1164 15.7383 35.8221 15.8945 35.5323 16.0507L35.5645 16.0644ZM59.5714 15.5821C59.2725 15.4351 58.969 15.2927 58.6516 15.1595L58.8816 14.6449C59.1897 14.7874 59.4978 14.9298 59.8014 15.0814L59.5714 15.5821ZM37.349 15.1824L37.119 14.6725C37.4271 14.5301 37.7353 14.4015 38.0388 14.2729L38.2504 14.792C37.9238 14.9022 37.6157 15.0538 37.3168 15.1686L37.349 15.1824ZM57.7456 14.769C57.4375 14.645 57.1247 14.5255 56.8258 14.4107L57.0098 13.887C57.3317 14.0018 57.6536 14.1213 57.9664 14.2499L57.7456 14.769ZM39.1932 14.4336L39.0046 13.91C39.3112 13.7966 39.6331 13.6864 39.9704 13.5792L40.1406 14.1121C39.791 14.1994 39.4737 14.3096 39.161 14.4199L39.1932 14.4336ZM55.86 14.0937C55.5427 13.9926 55.2254 13.9008 54.9034 13.8135L55.0506 13.2714L56.0302 13.5608L55.86 14.0937ZM41.0972 13.8319L40.95 13.2898C41.2765 13.2025 41.603 13.1198 41.9342 13.0417L42.063 13.5838C41.7165 13.645 41.3838 13.7231 41.065 13.8181L41.0972 13.8319ZM53.9376 13.57C53.6111 13.4965 53.2892 13.4276 52.958 13.3633L53.0638 12.812C53.3995 12.8763 53.7307 12.9498 54.0618 13.0233L53.9376 13.57ZM43.0379 13.3771L42.9322 12.8258C43.2633 12.7615 43.599 12.7064 43.9348 12.6512L44.0221 13.2071C43.6588 13.2439 43.3323 13.299 43.0057 13.3633L43.0379 13.3771ZM51.9738 13.1933C51.6473 13.1428 51.3208 13.1014 50.9851 13.0647L51.0494 12.5088C51.3898 12.5456 51.7255 12.5915 52.0612 12.6421L51.9738 13.1933ZM45.0109 13.0739L44.9465 12.518C45.2823 12.4767 45.6226 12.4445 45.9629 12.417L46.0043 12.9774C45.6517 12.9927 45.3099 13.0203 44.9787 13.0601L45.0109 13.0739ZM49.9917 12.9728C49.6605 12.9453 49.3294 12.9269 48.9983 12.9177V12.3572C49.3386 12.3572 49.6789 12.3894 50.0147 12.4124L49.9917 12.9728ZM47.0023 12.9177L46.9793 12.3618C47.315 12.3618 47.6554 12.3389 47.9957 12.3389V12.8993C47.6324 12.8855 47.3012 12.8901 46.9701 12.9039L47.0023 12.9177Z" fill="#F49618"/>
<path d="M96.0004 30.7552H78.5242C76.5654 24.1916 72.5376 18.435 67.04 14.3419C61.5424 10.2487 54.8688 8.0376 48.0119 8.0376C41.1551 8.0376 34.4815 10.2487 28.9839 14.3419C23.4863 18.435 19.4585 24.1916 17.4997 30.7552H0.0234375L8.1867 38.9414L0.0234375 47.0678H17.0398C18.1451 51.7507 20.2939 56.1241 23.3261 59.8624C26.3583 63.6006 30.1959 66.6074 34.5529 68.6586L34.8334 68.0523C29.7693 65.6898 25.4339 62.0112 22.2811 57.4013C19.1283 52.7914 17.2739 47.4197 16.9121 41.8485C16.5503 36.2773 17.6943 30.7114 20.2244 25.7333C22.7545 20.7551 26.5777 16.5478 31.2939 13.5516C36.0101 10.5555 41.4458 8.88055 47.0322 8.70225C52.6186 8.52394 58.1503 9.84877 63.0483 12.5381C67.9464 15.2274 72.0307 19.1824 74.8738 23.989C77.717 28.7956 79.2144 34.2772 79.2094 39.8601C79.207 42.0596 78.9695 44.2526 78.5012 46.4017V46.4936C77.3726 51.6349 74.9617 56.4081 71.4923 60.3698C68.023 64.3316 63.6077 67.3534 58.6564 69.1548L58.8817 69.7795C63.8692 67.967 68.3259 64.9418 71.8493 60.9773C75.3727 57.0128 77.8516 52.2339 79.0622 47.0724H95.9591L87.8142 38.9414L96.0004 30.7552ZM1.66069 46.3971L9.1341 38.9414L1.6147 31.4259H17.3296C17.1502 32.0691 16.9892 32.7168 16.8697 33.3737C15.4532 33.2267 7.52444 33.4334 7.52444 33.4334L12.5834 38.4866L6.55865 44.4999H16.5339C16.6259 45.1384 16.7409 45.7724 16.8743 46.3971H1.66069ZM94.3448 46.3971H79.168C79.3014 45.7724 79.4164 45.1384 79.5129 44.4999H89.5158L83.5187 38.482L88.5776 33.4288C88.5776 33.4288 80.5293 33.2175 79.2048 33.3737C79.0668 32.7122 78.9013 32.0645 78.7449 31.4213H94.3816L86.8668 38.9414L94.3448 46.3971Z" fill="#F49618"/>
<path d="M52.1763 32.2302L49.7158 35.1197H52.627L53.8687 33.6589C58.4678 33.0433 59.9027 30.2916 59.9027 30.2916L63.2737 23.1437L56.9363 30.2135C56.8629 30.296 56.7598 30.3462 56.6495 30.3531C56.5393 30.36 56.4307 30.323 56.3476 30.2503C56.2633 30.1811 56.2097 30.0815 56.1985 29.9732C56.1873 29.8648 56.2194 29.7563 56.2878 29.6715L62.1102 22.303C62.1102 22.303 57.4284 27.2873 55.7129 29.1937C55.639 29.2666 55.5402 29.3091 55.4363 29.3126C55.3325 29.3162 55.2311 29.2806 55.1523 29.2129C55.0735 29.1452 55.0231 29.0503 55.0111 28.9472C54.9991 28.8441 55.0263 28.7402 55.0875 28.6562L61.126 21.3062L54.5724 25.7346C54.5724 25.7346 52.0705 27.5721 52.1717 32.2118L52.1763 32.2302Z" fill="#F49618"/>
<path d="M46.3858 42.4468H42.656C42.1319 42.5366 41.6563 42.8082 41.3131 43.2139L33.7063 52.1489C33.5086 52.3751 33.3581 52.6384 33.2635 52.9234C33.1688 53.2084 33.132 53.5094 33.1551 53.8087C33.1783 54.1081 33.2609 54.3999 33.3981 54.667C33.5354 54.9341 33.7246 55.1712 33.9546 55.3645C34.1826 55.5603 34.4472 55.7088 34.7331 55.8015C35.019 55.8942 35.3205 55.9291 35.6201 55.9043C35.9197 55.8796 36.2113 55.7955 36.4781 55.6571C36.7449 55.5187 36.9814 55.3286 37.1739 55.0981L44.7807 46.1677C45.0441 45.8605 45.2205 45.4886 45.2917 45.0904C45.3628 44.6922 45.3262 44.2823 45.1854 43.903L46.3858 42.4468ZM35.9598 54.1012C35.868 54.2079 35.7466 54.2851 35.6109 54.3229C35.4752 54.3607 35.3314 54.3576 35.1975 54.3138C35.0636 54.2701 34.9457 54.1877 34.8587 54.077C34.7717 53.9664 34.7194 53.8325 34.7085 53.6922C34.6976 53.5519 34.7285 53.4116 34.7974 53.2889C34.8663 53.1661 34.9701 53.0665 35.0956 53.0027C35.2211 52.9388 35.3628 52.9135 35.5026 52.93C35.6425 52.9464 35.7744 53.0039 35.8816 53.0952C35.9531 53.156 36.0118 53.2303 36.0544 53.3139C36.097 53.3974 36.1227 53.4885 36.1299 53.582C36.1372 53.6755 36.1259 53.7695 36.0967 53.8586C36.0675 53.9477 36.021 54.0301 35.9598 54.1012Z" fill="#F49618"/>
<path d="M64.8696 52.9252L54.3792 42.4468H45.917C47.821 44.8172 49.1363 46.3607 49.1363 46.3607L51.8589 43.6458L53.0869 44.8723L52.2912 45.6624L62.2159 55.5713C62.3898 55.7452 62.5962 55.8831 62.8235 55.9772C63.0508 56.0714 63.2944 56.1198 63.5404 56.1198C63.7865 56.1198 64.0301 56.0714 64.2574 55.9772C64.4847 55.8831 64.6911 55.7452 64.865 55.5713C65.0394 55.3979 65.1778 55.1919 65.2725 54.9651C65.3671 54.7382 65.416 54.4949 65.4165 54.2492C65.4169 54.0034 65.3688 53.76 65.275 53.5328C65.1811 53.3056 65.0434 53.0992 64.8696 52.9252ZM63.4899 54.1839C63.4198 54.254 63.3305 54.3018 63.2332 54.3212C63.1359 54.3406 63.0351 54.3308 62.9434 54.2929C62.8518 54.255 62.7734 54.1909 62.7183 54.1085C62.6632 54.0261 62.6338 53.9293 62.6338 53.8302C62.6338 53.7311 62.6632 53.6343 62.7183 53.5519C62.7734 53.4695 62.8518 53.4054 62.9434 53.3675C63.0351 53.3296 63.1359 53.3198 63.2332 53.3392C63.3305 53.3586 63.4198 53.4064 63.4899 53.4765C63.5369 53.5227 63.5742 53.5777 63.5997 53.6384C63.6252 53.6992 63.6383 53.7643 63.6383 53.8302C63.6383 53.896 63.6252 53.9612 63.5997 54.022C63.5742 54.0827 63.5369 54.1377 63.4899 54.1839Z" fill="#F49618"/>
<path d="M47.0619 35.1196L32.998 21.0718C33.1268 24.2093 36.2174 29.5335 40.3013 35.1196H47.0619Z" fill="#F49618"/>
<path d="M50.5481 21.6045C51.0694 21.5271 51.5424 21.2564 51.8729 20.8464C52.2035 20.4364 52.3674 19.9172 52.3321 19.3919C52.2967 18.8667 52.0646 18.374 51.6821 18.0119C51.2995 17.6499 50.7945 17.4449 50.2675 17.4379C50.1381 17.4368 50.0087 17.4476 49.8812 17.4701C49.7753 17.0077 49.5153 16.595 49.144 16.2994C48.7726 16.0038 48.3118 15.8428 47.837 15.8428C47.3621 15.8428 46.9013 16.0038 46.5299 16.2994C46.1586 16.595 45.8987 17.0077 45.7927 17.4701C45.6534 17.4422 45.5117 17.4284 45.3696 17.4287C44.8269 17.4159 44.3005 17.6142 43.9014 17.9818C43.5024 18.3494 43.262 18.8575 43.231 19.3988C43.1999 19.9401 43.3807 20.4723 43.7351 20.883C44.0895 21.2937 44.5898 21.5507 45.1304 21.5999V25.8767H44.5877C44.5577 25.8722 44.527 25.8743 44.4978 25.8828C44.4686 25.8912 44.4415 25.9059 44.4185 25.9257C44.3955 25.9455 44.377 25.9701 44.3643 25.9977C44.3516 26.0253 44.3451 26.0554 44.3451 26.0857C44.3451 26.1161 44.3516 26.1461 44.3643 26.1738C44.377 26.2014 44.3955 26.2259 44.4185 26.2458C44.4415 26.2656 44.4686 26.2802 44.4978 26.2887C44.527 26.2971 44.5577 26.2992 44.5877 26.2948H51.0264C51.0565 26.2992 51.0872 26.2971 51.1164 26.2887C51.1456 26.2802 51.1726 26.2656 51.1957 26.2458C51.2187 26.2259 51.2372 26.2014 51.2498 26.1738C51.2625 26.1461 51.269 26.1161 51.269 26.0857C51.269 26.0554 51.2625 26.0253 51.2498 25.9977C51.2372 25.9701 51.2187 25.9455 51.1957 25.9257C51.1726 25.9059 51.1456 25.8912 51.1164 25.8828C51.0872 25.8743 51.0565 25.8722 51.0264 25.8767H50.5251V21.5953L50.5481 21.6045ZM50.2445 21.6045V25.647H49.7846V21.1956H50.2445C50.4577 21.1878 50.6673 21.1381 50.8613 21.0493C51.0552 20.9606 51.2298 20.8346 51.375 20.6785C51.5202 20.5223 51.6332 20.3392 51.7075 20.1394C51.7819 19.9397 51.8161 19.7273 51.8082 19.5143C51.8004 19.3014 51.7506 19.092 51.6618 18.8983C51.5729 18.7045 51.4467 18.5302 51.2904 18.3851C51.1341 18.2401 50.9508 18.1273 50.7508 18.053C50.5508 17.9788 50.3382 17.9446 50.125 17.9524V17.6538C50.3834 17.636 50.6427 17.6704 50.8875 17.7549C51.1323 17.8395 51.3575 17.9725 51.5497 18.1459C51.7418 18.3194 51.897 18.5297 52.006 18.7644C52.1149 18.9992 52.1754 19.2534 52.1837 19.512C52.1921 19.7706 52.1482 20.0282 52.0546 20.2694C51.961 20.5107 51.8197 20.7306 51.6391 20.9161C51.4585 21.1015 51.2424 21.2487 51.0036 21.3488C50.7647 21.449 50.5082 21.5 50.2492 21.4988L50.2445 21.6045Z" fill="#F49618"/>
<path d="M38.4801 70.5304C38.4428 70.6085 38.4233 70.6939 38.4231 70.7805C38.4229 70.867 38.4419 70.9525 38.4789 71.0308C38.5159 71.1091 38.5699 71.1782 38.6369 71.2331C38.7039 71.2879 38.7823 71.3272 38.8664 71.3481C39.042 71.4261 39.2309 71.4697 39.4229 71.4767C39.4229 71.5502 39.4229 71.6283 39.4229 71.7064C39.1894 71.7001 38.9594 71.647 38.7468 71.5502C38.6249 71.5194 38.5115 71.4618 38.4148 71.3815C38.3181 71.3012 38.2407 71.2002 38.1882 71.0861C38.1357 70.972 38.1095 70.8475 38.1114 70.722C38.1134 70.5964 38.1435 70.4728 38.1996 70.3604C38.3 70.1424 38.4818 69.9723 38.7061 69.8865C38.9304 69.8007 39.1794 69.8059 39.3999 69.901C39.498 69.9382 39.5875 69.995 39.6629 70.0679C39.7383 70.1408 39.7981 70.2283 39.8385 70.325C39.879 70.4217 39.8993 70.5257 39.8982 70.6305C39.8971 70.7353 39.8747 70.8388 39.8322 70.9346C39.8322 70.9943 39.7862 71.0357 39.7724 71.0678C39.3217 70.907 38.8986 70.7325 38.4801 70.5304ZM39.5241 70.7371C39.5549 70.6785 39.5726 70.6139 39.5761 70.5478C39.5795 70.4817 39.5687 70.4157 39.5442 70.3541C39.5198 70.2926 39.4823 70.2371 39.4344 70.1914C39.3864 70.1457 39.3292 70.1109 39.2665 70.0894C39.1416 70.0388 39.0025 70.0356 38.8754 70.0805C38.7483 70.1253 38.6421 70.2151 38.5767 70.3328C38.8894 70.4844 39.2022 70.6177 39.5241 70.7417V70.7371Z" fill="#FE942A"/>
<path d="M40.5537 71.9687C40.6703 72.0902 40.8159 72.1803 40.9768 72.2305C41.2298 72.3086 41.3815 72.2305 41.4367 72.0973C41.4919 71.9641 41.3999 71.8492 41.1746 71.693C40.871 71.4863 40.7699 71.2704 40.8342 71.0821C40.8983 70.9426 41.0152 70.8342 41.1592 70.7808C41.3033 70.7274 41.4626 70.7333 41.6023 70.7972C41.752 70.8395 41.8903 70.9149 42.007 71.0177L41.869 71.2153C41.7742 71.1217 41.6571 71.0537 41.5287 71.0177C41.3355 70.9626 41.1976 71.0177 41.1608 71.1464C41.124 71.275 41.2068 71.3806 41.4229 71.5276C41.7127 71.7298 41.846 71.9135 41.7816 72.1616C41.7173 72.4097 41.3861 72.5888 40.9216 72.4464C40.7313 72.3931 40.5564 72.2955 40.4111 72.1616L40.5537 71.9687Z" fill="#FE942A"/>
<path d="M44.3483 70.7492L44.2563 71.2086L44.7162 71.2959L44.6748 71.5256L44.2149 71.4383L44.0356 72.3571C43.9942 72.5638 44.0356 72.6924 44.2425 72.7292C44.3129 72.7365 44.3838 72.7365 44.4541 72.7292C44.4541 72.8027 44.4541 72.8807 44.4541 72.9588C44.3444 72.9762 44.2326 72.9762 44.123 72.9588C44.0446 72.9586 43.9675 72.9384 43.8992 72.9C43.8308 72.8617 43.7734 72.8065 43.7324 72.7398C43.6914 72.673 43.6681 72.5969 43.6648 72.5187C43.6616 72.4405 43.6784 72.3627 43.7136 72.2927C43.7826 71.9895 43.847 71.6864 43.9114 71.374L43.6309 71.3097L43.686 71.08L43.962 71.1443L44.0494 70.7446L44.3483 70.7492Z" fill="#FE942A"/>
<path d="M46.3921 72.7635C46.408 72.7063 46.444 72.6567 46.4934 72.6238C46.5429 72.5908 46.6025 72.5766 46.6615 72.5839C46.7205 72.5911 46.775 72.6192 46.815 72.6632C46.855 72.7071 46.8779 72.7639 46.8796 72.8233C46.876 72.8547 46.8657 72.8851 46.8493 72.9122C46.833 72.9394 46.8109 72.9627 46.7847 72.9805C46.7586 72.9984 46.7288 73.0104 46.6976 73.0158C46.6663 73.0212 46.6343 73.0197 46.6036 73.0116C46.5727 73.0113 46.5422 73.0044 46.5142 72.9913C46.4862 72.9782 46.4613 72.9592 46.4413 72.9357C46.4212 72.9122 46.4064 72.8847 46.3979 72.855C46.3895 72.8253 46.3875 72.7941 46.3921 72.7635Z" fill="#FE942A"/>
<path d="M48.7124 70.5746L48.2893 70.7905C48.2893 70.7078 48.2479 70.6297 48.2295 70.5516C48.4043 70.4643 48.579 70.377 48.7492 70.2852H49.0205L49.1033 72.5821H48.7492C48.7354 71.9068 48.7216 71.2407 48.7124 70.5746Z" fill="#FE942A"/>
<path d="M50.4156 72.4779C50.5135 72.4727 50.6106 72.4573 50.7053 72.432C50.9051 72.388 51.0865 72.2838 51.225 72.1334C51.3866 71.9537 51.4708 71.7177 51.4595 71.4765C51.3974 71.5715 51.3148 71.6513 51.2177 71.7102C51.1206 71.769 51.0115 71.8053 50.8985 71.8164C50.8041 71.8386 50.7061 71.8401 50.6111 71.8208C50.5161 71.8016 50.4264 71.762 50.3482 71.7048C50.27 71.6476 50.2051 71.5742 50.158 71.4896C50.1108 71.405 50.0826 71.3112 50.0752 71.2146C50.0492 70.9979 50.11 70.7797 50.2444 70.6076C50.3788 70.4355 50.5759 70.3234 50.7927 70.2959C51.2526 70.2224 51.6343 70.5302 51.7539 71.1044C51.8061 71.2997 51.8117 71.5046 51.7702 71.7025C51.7286 71.9004 51.6411 72.0857 51.5147 72.2437C51.3218 72.4549 51.0679 72.601 50.7881 72.6617C50.6781 72.6911 50.5658 72.711 50.4524 72.7214L50.4156 72.4779ZM50.4156 71.1549C50.4203 71.2194 50.4386 71.2821 50.4692 71.3389C50.4999 71.3958 50.5422 71.4456 50.5934 71.4851C50.6446 71.5245 50.7036 71.5528 50.7664 71.5679C50.8293 71.583 50.8947 71.5847 50.9582 71.5729C51.0558 71.5644 51.1495 71.5307 51.2301 71.4752C51.3107 71.4196 51.3755 71.3441 51.4181 71.256C51.4301 71.2187 51.4301 71.1785 51.4181 71.1412C51.3492 70.7553 51.1468 70.4934 50.8111 70.5439C50.7423 70.5542 50.6764 70.5786 50.6174 70.6155C50.5585 70.6524 50.5078 70.701 50.4685 70.7584C50.4293 70.8157 50.4022 70.8805 50.3892 70.9487C50.3761 71.017 50.3773 71.0872 50.3926 71.1549H50.4156Z" fill="#FE942A"/>
<path d="M52.9889 71.7796C52.9646 71.6381 52.9858 71.4926 53.0494 71.3638C53.113 71.2351 53.2158 71.1298 53.343 71.063C53.2266 71.0582 53.1148 71.0164 53.0238 70.9437C52.9328 70.8709 52.8674 70.7711 52.8371 70.6587C52.8234 70.5703 52.8273 70.4801 52.8485 70.3932C52.8698 70.3063 52.908 70.2245 52.961 70.1523C53.014 70.0802 53.0807 70.0192 53.1573 69.9729C53.2339 69.9266 53.3189 69.8958 53.4074 69.8824C53.4836 69.8475 53.5661 69.8283 53.6498 69.8259C53.7336 69.8235 53.817 69.838 53.8951 69.8684C53.9732 69.8988 54.0443 69.9446 54.1043 70.0031C54.1643 70.0615 54.212 70.1314 54.2444 70.2086C54.279 70.3256 54.2753 70.4506 54.234 70.5654C54.1927 70.6802 54.1158 70.7788 54.0145 70.8471C54.1556 70.834 54.2972 70.8656 54.4193 70.9374C54.5414 71.0091 54.6379 71.1173 54.6952 71.2468C54.8285 71.6234 54.525 72.0139 54.0191 72.1655C53.5132 72.3171 53.0579 72.0828 52.9889 71.7796ZM54.3686 71.3892C54.2858 71.1273 54.0329 71.0676 53.6788 71.0768C53.4074 71.2329 53.2924 71.4397 53.3476 71.651C53.4028 71.8623 53.642 72.0323 53.9731 71.9358C54.3042 71.8394 54.4284 71.5959 54.3548 71.3708L54.3686 71.3892ZM53.1407 70.5531C53.1959 70.7736 53.4074 70.8517 53.711 70.8379C53.8027 70.7922 53.8764 70.7172 53.9206 70.6248C53.9648 70.5324 53.9768 70.428 53.9547 70.328C53.94 70.2777 53.9148 70.2311 53.8809 70.1913C53.8469 70.1514 53.8049 70.1191 53.7575 70.0965C53.7102 70.074 53.6587 70.0617 53.6063 70.0604C53.5539 70.0591 53.5018 70.0689 53.4534 70.0891C53.4022 70.0958 53.3528 70.1127 53.3083 70.139C53.2638 70.1653 53.2251 70.2003 53.1946 70.242C53.164 70.2837 53.1423 70.3311 53.1306 70.3814C53.119 70.4317 53.1177 70.4839 53.1269 70.5347L53.1407 70.5531Z" fill="#FE942A"/>
<path d="M55.804 71.4414L55.735 71.2623C55.7994 71.1566 55.8592 71.0509 55.919 70.9407C56.3559 70.1735 56.4846 69.7785 56.3467 69.4615C56.3237 69.4024 56.2881 69.3491 56.2422 69.3054C56.1963 69.2616 56.1414 69.2285 56.0812 69.2083C56.0211 69.1882 55.9573 69.1814 55.8942 69.1887C55.8312 69.1959 55.7706 69.2169 55.7166 69.2502C55.5445 69.3305 55.4015 69.4621 55.3073 69.6269L55.1279 69.4569C55.2587 69.2512 55.4498 69.0908 55.6752 68.9975C55.757 68.9509 55.8475 68.9214 55.9411 68.911C56.0347 68.9006 56.1294 68.9094 56.2194 68.9369C56.3095 68.9645 56.393 69.0101 56.4647 69.0711C56.5364 69.1321 56.5948 69.2071 56.6364 69.2915C56.8204 69.6682 56.6686 70.1322 56.3237 70.7799L56.1903 71.0188C56.572 70.8672 56.9445 70.7018 57.3125 70.5227L57.4228 70.7524C56.8939 71.005 56.3513 71.2393 55.804 71.4414Z" fill="#FE942A"/>
<path d="M37.0768 41C36.5914 41 36.2154 40.8453 35.9488 40.536C35.7194 40.2693 35.6048 39.9253 35.6048 39.504V36.368L36.6128 35.84V39.456C36.6128 39.664 36.6554 39.8133 36.7408 39.904C36.8261 39.9893 36.9701 40.032 37.1728 40.032H37.8928V41H37.0768ZM38.9784 36.64C38.8184 36.64 38.6904 36.592 38.5944 36.496C38.4984 36.4 38.4504 36.2693 38.4504 36.104C38.4504 35.9493 38.4984 35.824 38.5944 35.728C38.6904 35.632 38.8184 35.584 38.9784 35.584C39.1384 35.584 39.2637 35.632 39.3544 35.728C39.4504 35.8187 39.4984 35.944 39.4984 36.104C39.4984 36.4613 39.3251 36.64 38.9784 36.64ZM40.2584 40.032H40.9784V41H40.1624C39.7731 41 39.4504 40.896 39.1944 40.688C38.9384 40.896 38.6157 41 38.2264 41H37.4104V40.032H38.1304C38.3331 40.032 38.4771 39.9893 38.5624 39.904C38.6477 39.8133 38.6904 39.664 38.6904 39.456V37.976L39.6984 37.448V39.456C39.6984 39.664 39.7411 39.8133 39.8264 39.904C39.9117 39.9893 40.0557 40.032 40.2584 40.032ZM45.5843 40.032H46.2963V41H45.4803C45.0963 41 44.7817 40.9013 44.5363 40.704C44.2483 41.008 43.8697 41.16 43.4003 41.16C42.9203 41.16 42.5417 41.008 42.2643 40.704C42.0083 40.9013 41.691 41 41.3123 41H40.4963V40.032H41.2163C41.419 40.032 41.563 39.9893 41.6483 39.904C41.7337 39.8133 41.7763 39.664 41.7763 39.456V39.224C41.7763 38.6 41.939 38.1147 42.2643 37.768C42.547 37.464 42.9257 37.312 43.4003 37.312C43.939 37.312 44.355 37.5093 44.6483 37.904C44.8937 38.24 45.0163 38.68 45.0163 39.224V39.456C45.0163 39.664 45.059 39.8133 45.1443 39.904C45.235 39.9893 45.3817 40.032 45.5843 40.032ZM43.4003 40.192C43.8057 40.192 44.0083 39.8613 44.0083 39.2C44.0083 38.5653 43.8057 38.248 43.4003 38.248C42.9897 38.248 42.7843 38.5653 42.7843 39.2C42.7843 39.8613 42.9897 40.192 43.4003 40.192ZM49.7446 40.032H51.9446L51.9606 41H49.6486C49.3766 41 49.1206 40.9333 48.8806 40.8C48.63 40.9333 48.374 41 48.1126 41H45.8166V40.032H47.9926C47.7526 39.8667 47.5526 39.7093 47.3926 39.56C47.302 39.48 47.1633 39.3307 46.9766 39.112C46.918 39.0427 46.87 38.9867 46.8326 38.944V38.488C47.0673 38.1307 47.3686 37.8453 47.7366 37.632C48.11 37.4187 48.4913 37.312 48.8806 37.312C49.2646 37.312 49.6433 37.4213 50.0166 37.64C50.39 37.8533 50.6993 38.1413 50.9446 38.504V38.944C50.5873 39.376 50.1873 39.7387 49.7446 40.032ZM48.8726 39.648C49.2726 39.3333 49.5686 39.016 49.7606 38.696C49.4406 38.3973 49.1393 38.248 48.8566 38.248C48.5846 38.248 48.302 38.3973 48.0086 38.696C48.2166 39.064 48.5046 39.3813 48.8726 39.648ZM58.4487 40.032H59.1687V41H58.3527C57.9687 41 57.654 40.9013 57.4087 40.704C57.1634 40.9013 56.8567 41 56.4887 41H51.4807V40.032H52.9127L53.0087 39.76V36.376L54.0167 35.84V38.144C54.5607 37.5893 55.1847 37.312 55.8887 37.312C56.5234 37.312 57.0274 37.5307 57.4007 37.968C57.7207 38.336 57.8807 38.792 57.8807 39.336V39.504C57.8807 39.856 58.07 40.032 58.4487 40.032ZM56.4487 40.032C56.6247 40.032 56.7394 39.9973 56.7927 39.928C56.8514 39.8587 56.8807 39.712 56.8807 39.488V39.336C56.8807 39.016 56.7874 38.7547 56.6007 38.552C56.4194 38.3493 56.1847 38.248 55.8967 38.248C55.5287 38.248 55.1767 38.384 54.8407 38.656C54.51 38.928 54.2354 39.304 54.0167 39.784V40.032H56.4487ZM59.9716 38.792C59.9716 38.312 60.121 37.936 60.4196 37.664C60.681 37.4293 61.017 37.312 61.4276 37.312C61.9556 37.312 62.3663 37.5067 62.6596 37.896C62.9103 38.2213 63.0356 38.64 63.0356 39.152C63.0356 39.744 62.8783 40.2107 62.5636 40.552C62.281 40.8507 61.921 41 61.4836 41C61.057 41 60.7076 40.9067 60.4356 40.72C60.1796 40.9067 59.8703 41 59.5076 41H58.6916V40.032H59.4116C59.6143 40.032 59.7583 39.9893 59.8436 39.904C59.929 39.8133 59.9716 39.664 59.9716 39.456V38.792ZM60.9796 39.584C60.9796 39.8827 61.137 40.032 61.4516 40.032C61.8463 40.032 62.0436 39.728 62.0436 39.12C62.0436 38.5387 61.8383 38.248 61.4276 38.248C61.129 38.248 60.9796 38.424 60.9796 38.776V39.584Z" fill="#F49618"/>
</g>
<defs>
<clipPath id="clip0_837_952">
<rect width="96" height="73" fill="white"/>
</clipPath>
</defs>
</svg>
